<svg xmlns="http://www.w3.org/2000/svg" xmlns:xlink="http://www.w3.org/1999/xlink" width="1366" zoomAndPan="magnify" viewBox="0 0 1024.5 576" height="768" preserveAspectRatio="xMidYMid meet" version="1.0"><defs><clipPath id="7c0ff9ed3e"><path d="M 279 59 L 687 59 L 687 472 L 279 472 Z M 279 59 " clip-rule="nonzero"/></clipPath><clipPath id="2f39056bb2"><path d="M 608.074219 -70.261719 L 812.851562 126.679688 L 381.035156 575.675781 L 176.257812 378.730469 Z M 608.074219 -70.261719 " clip-rule="nonzero"/></clipPath><clipPath id="b2f5fd94ad"><path d="M 608.074219 -70.261719 L 812.851562 126.679688 L 381.035156 575.675781 L 176.257812 378.730469 Z M 608.074219 -70.261719 " clip-rule="nonzero"/></clipPath><clipPath id="2e8a8ee43f"><path d="M 287 25 L 715 25 L 715 462 L 287 462 Z M 287 25 " clip-rule="nonzero"/></clipPath><clipPath id="0cb679fbf3"><path d="M 608.074219 -70.261719 L 812.851562 126.679688 L 381.035156 575.675781 L 176.257812 378.730469 Z M 608.074219 -70.261719 " clip-rule="nonzero"/></clipPath><clipPath id="a62d168888"><path d="M 608.074219 -70.261719 L 812.851562 126.679688 L 381.035156 575.675781 L 176.257812 378.730469 Z M 608.074219 -70.261719 " clip-rule="nonzero"/></clipPath><clipPath id="f2169d03f0"><path d="M 217 351 L 407 351 L 407 539 L 217 539 Z M 217 351 " clip-rule="nonzero"/></clipPath><clipPath id="b25ee9f93c"><path d="M 608.074219 -70.261719 L 812.851562 126.679688 L 381.035156 575.675781 L 176.257812 378.730469 Z M 608.074219 -70.261719 " clip-rule="nonzero"/></clipPath><clipPath id="4a98f9058a"><path d="M 608.074219 -70.261719 L 812.851562 126.679688 L 381.035156 575.675781 L 176.257812 378.730469 Z M 608.074219 -70.261719 " clip-rule="nonzero"/></clipPath><clipPath id="d50f44e38b"><path d="M 263 131 L 614 131 L 614 488 L 263 488 Z M 263 131 " clip-rule="nonzero"/></clipPath><clipPath id="14ec456ab3"><path d="M 608.074219 -70.261719 L 812.851562 126.679688 L 381.035156 575.675781 L 176.257812 378.730469 Z M 608.074219 -70.261719 " clip-rule="nonzero"/></clipPath><clipPath id="61840fd6ba"><path d="M 608.074219 -70.261719 L 812.851562 126.679688 L 381.035156 575.675781 L 176.257812 378.730469 Z M 608.074219 -70.261719 " clip-rule="nonzero"/></clipPath><clipPath id="daab24e122"><path d="M 216 25 L 716 25 L 716 539 L 216 539 Z M 216 25 " clip-rule="nonzero"/></clipPath><clipPath id="c6daa834e5"><path d="M 608.074219 -70.261719 L 812.851562 126.679688 L 381.035156 575.675781 L 176.257812 378.730469 Z M 608.074219 -70.261719 " clip-rule="nonzero"/></clipPath><clipPath id="a8dd4cdf77"><path d="M 608.074219 -70.261719 L 812.851562 126.679688 L 381.035156 575.675781 L 176.257812 378.730469 Z M 608.074219 -70.261719 " clip-rule="nonzero"/></clipPath><clipPath id="c1aa3fccaa"><path d="M 326.046875 98.222656 L 349.285156 98.222656 L 349.285156 121.464844 L 326.046875 121.464844 Z M 326.046875 98.222656 " clip-rule="nonzero"/></clipPath><clipPath id="a9f19e6b96"><path d="M 642 412 L 675 412 L 675 445 L 642 445 Z M 642 412 " clip-rule="nonzero"/></clipPath><clipPath id="38d61253df"><path d="M 647.910156 405.074219 L 679.25 417.550781 L 667.324219 447.5 L 635.984375 435.019531 Z M 647.910156 405.074219 " clip-rule="nonzero"/></clipPath><clipPath id="8ce653f6d6"><path d="M 647.910156 405.074219 L 679.25 417.550781 L 667.324219 447.5 L 635.984375 435.019531 Z M 647.910156 405.074219 " clip-rule="nonzero"/></clipPath><clipPath id="57d006d3fd"><path d="M 641 411 L 675 411 L 675 446 L 641 446 Z M 641 411 " clip-rule="nonzero"/></clipPath><clipPath id="7c6e7c4a39"><path d="M 647.910156 405.074219 L 679.25 417.550781 L 667.324219 447.5 L 635.984375 435.019531 Z M 647.910156 405.074219 " clip-rule="nonzero"/></clipPath><clipPath id="6c3afae133"><path d="M 647.910156 405.074219 L 679.25 417.550781 L 667.324219 447.5 L 635.984375 435.019531 Z M 647.910156 405.074219 " clip-rule="nonzero"/></clipPath></defs><g clip-path="url(#7c0ff9ed3e)"><g clip-path="url(#2f39056bb2)"><g clip-path="url(#b2f5fd94ad)"><path fill="#eaf0ed" d="M 503.910156 438.195312 L 487.71875 455.03125 L 433.660156 403.039062 L 435.714844 400.902344 C 445.515625 390.710938 451.277344 377.214844 452.054688 362.628906 L 452.070312 362.648438 L 571.28125 238.699219 L 520.785156 320.445312 C 517.222656 326.21875 515.15625 332.789062 514.777344 339.5625 L 510.054688 424.089844 C 509.757812 429.375 507.578125 434.378906 503.910156 438.195312 Z M 349.996094 318.457031 C 359.796875 308.269531 373.054688 301.984375 387.601562 300.640625 L 387.582031 300.625 L 508.234375 175.171875 L 507.910156 174.859375 L 427.167969 230.148438 C 421.480469 234.042969 414.894531 236.429688 408.027344 237.082031 L 323.925781 245.082031 C 318.65625 245.582031 313.738281 247.957031 310.070312 251.769531 L 293.878906 268.605469 L 347.9375 320.597656 Z M 642.101562 111.707031 C 641.996094 105.703125 636.925781 100.828125 630.921875 100.957031 C 612.777344 101.34375 575.472656 105.261719 552.375 129.277344 L 387.582031 300.625 L 416.171875 328.121094 L 429.152344 314.625 C 431.09375 312.605469 434.304688 312.542969 436.324219 314.484375 C 438.339844 316.425781 438.402344 319.636719 436.460938 321.65625 L 423.484375 335.152344 L 452.074219 362.648438 L 616.867188 191.300781 C 639.960938 167.285156 642.421875 129.851562 642.101562 111.707031 Z M 514.777344 339.5625 L 511.996094 389.347656 L 666.652344 228.539062 L 685.667969 189.171875 C 688.074219 184.191406 682.558594 178.886719 677.671875 181.484375 L 639.078125 202.019531 L 516.722656 329.242188 C 515.636719 332.574219 514.972656 336.039062 514.777344 339.5625 Z M 408.027344 237.082031 C 411.632812 236.738281 415.15625 235.90625 418.515625 234.640625 L 540.796875 107.496094 L 559.8125 68.132812 C 562.21875 63.148438 556.703125 57.84375 551.816406 60.441406 L 513.222656 80.976562 L 358.566406 241.785156 Z M 624.285156 217.398438 L 617.207031 210.589844 L 590.355469 238.511719 L 597.433594 245.320312 Z M 533.085938 129.6875 L 526.003906 122.878906 L 499.152344 150.796875 L 506.234375 157.609375 Z M 428.320312 421.160156 L 405.410156 444.984375 L 432.984375 471.503906 L 459.039062 444.410156 Z M 305.988281 297.210938 L 279.929688 324.304688 L 307.503906 350.824219 L 330.414062 327 Z M 305.988281 297.210938 " fill-opacity="1" fill-rule="nonzero"/></g></g></g><g clip-path="url(#2e8a8ee43f)"><g clip-path="url(#0cb679fbf3)"><g clip-path="url(#a62d168888)"><path fill="#9374ff" d="M 454.402344 211.5 L 597.464844 62.75 C 627.589844 31.421875 676.253906 26.316406 699.921875 25.808594 C 707.75 25.640625 714.367188 32 714.503906 39.832031 C 714.917969 63.503906 711.710938 112.328125 681.585938 143.652344 L 537.363281 293.609375 L 571.28125 238.699219 L 616.867188 191.300781 C 639.960938 167.285156 642.421875 129.855469 642.101562 111.707031 C 641.996094 105.707031 636.925781 100.828125 630.921875 100.957031 C 612.777344 101.347656 575.472656 105.261719 552.375 129.277344 L 508.234375 175.175781 L 507.910156 174.863281 Z M 355.710938 405.617188 L 436.460938 321.65625 C 438.402344 319.636719 438.339844 316.425781 436.320312 314.484375 C 434.300781 312.542969 431.09375 312.605469 429.148438 314.625 L 348.398438 398.585938 C 346.457031 400.605469 346.519531 403.816406 348.539062 405.757812 C 350.558594 407.699219 353.769531 407.636719 355.710938 405.617188 Z M 347.9375 320.597656 L 293.878906 268.605469 L 287.710938 275.019531 L 335.601562 333.425781 Z M 421.320312 415.867188 L 481.550781 461.445312 L 487.71875 455.03125 L 433.65625 403.039062 Z M 490.597656 408.410156 L 466.183594 384.933594 L 450.722656 401.007812 L 475.136719 424.488281 Z M 490.597656 408.410156 " fill-opacity="1" fill-rule="nonzero"/></g></g></g><g clip-path="url(#f2169d03f0)"><g clip-path="url(#b25ee9f93c)"><g clip-path="url(#4a98f9058a)"><path fill="#f5f3ff" d="M 267.410156 397.492188 C 251.476562 414.058594 217.328125 416.871094 217.328125 416.871094 C 217.328125 416.871094 218.808594 382.640625 234.742188 366.074219 C 250.679688 349.503906 266.015625 348.195312 275.035156 356.867188 C 284.058594 365.542969 283.34375 380.921875 267.410156 397.492188 Z M 400.953125 478.027344 C 391.929688 469.351562 376.59375 470.664062 360.660156 487.230469 C 344.722656 503.800781 343.246094 538.027344 343.246094 538.027344 C 343.246094 538.027344 377.390625 535.21875 393.324219 518.648438 C 409.261719 502.078125 409.972656 486.703125 400.953125 478.027344 Z M 329.96875 378.519531 C 325.140625 373.875 318.042969 373.425781 308.457031 383.394531 C 298.871094 393.359375 295.25 414.613281 295.25 414.613281 C 295.25 414.613281 316.347656 410.171875 325.933594 400.203125 C 335.519531 390.234375 334.792969 383.160156 329.96875 378.519531 Z M 376.484375 423.253906 C 371.65625 418.613281 364.558594 418.164062 354.972656 428.128906 C 345.386719 438.097656 341.765625 459.351562 341.765625 459.351562 C 341.765625 459.351562 362.863281 454.90625 372.449219 444.9375 C 382.035156 434.96875 381.308594 427.894531 376.484375 423.253906 Z M 376.484375 423.253906 " fill-opacity="1" fill-rule="nonzero"/></g></g></g><g clip-path="url(#d50f44e38b)"><g clip-path="url(#14ec456ab3)"><g clip-path="url(#61840fd6ba)"><path fill="#9374ff" d="M 598.097656 180.847656 C 592.941406 159.171875 585.410156 151.925781 563.546875 147.625 C 569.730469 141.195312 572.820312 137.980469 579.003906 131.554688 C 600.863281 135.855469 608.398438 143.101562 613.550781 164.78125 C 607.367188 171.207031 604.277344 174.421875 598.097656 180.847656 Z M 352.804688 275.371094 C 348.265625 271.003906 341.046875 271.144531 336.679688 275.683594 C 332.316406 280.226562 332.457031 287.441406 336.996094 291.808594 C 341.535156 296.175781 348.753906 296.035156 353.121094 291.496094 C 357.484375 286.957031 357.34375 279.738281 352.804688 275.371094 Z M 432.976562 471.492188 L 405.5 445.066406 L 389.972656 451.402344 L 427.925781 487.902344 Z M 263.742188 330 L 301.691406 366.5 L 307.417969 350.738281 L 279.9375 324.3125 Z M 416.171875 328.121094 L 387.601562 300.640625 C 373.054688 301.984375 359.792969 308.269531 349.996094 318.457031 L 328.191406 341.128906 L 367.398438 378.832031 Z M 374.707031 385.863281 L 413.914062 423.570312 L 435.714844 400.902344 C 445.515625 390.710938 451.277344 377.214844 452.054688 362.628906 L 423.480469 335.152344 Z M 374.707031 385.863281 " fill-opacity="1" fill-rule="nonzero"/></g></g></g><g clip-path="url(#daab24e122)"><g clip-path="url(#c6daa834e5)"><g clip-path="url(#a8dd4cdf77)"><path fill="#1a1a1a" d="M 579.125 130.921875 L 578.78125 130.855469 L 562.269531 148.023438 L 563.425781 148.253906 C 585.054688 152.511719 592.375 159.550781 597.472656 180.996094 L 597.746094 182.144531 L 614.261719 164.972656 L 614.179688 164.632812 C 608.992188 142.816406 601.128906 135.253906 579.125 130.921875 Z M 579.222656 132.253906 C 585.320312 133.472656 590.238281 134.933594 594.316406 136.875 L 579.773438 151.996094 C 575.695312 149.984375 570.8125 148.464844 564.824219 147.226562 Z M 587.503906 157.289062 C 585.613281 155.472656 583.453125 153.929688 580.980469 152.597656 L 595.539062 137.457031 C 600.589844 140.101562 604.234375 143.613281 607.0625 148.578125 L 592.503906 163.714844 C 591.058594 161.253906 589.417969 159.128906 587.503906 157.289062 Z M 598.445312 179.558594 C 596.984375 173.667969 595.289062 168.878906 593.144531 164.902344 L 607.6875 149.78125 C 609.761719 153.761719 611.402344 158.589844 612.84375 164.589844 Z M 512.625 389.621094 L 667.117188 228.984375 L 686.246094 189.453125 C 687.464844 186.929688 686.917969 184.011719 684.847656 182.023438 C 682.78125 180.035156 679.847656 179.601562 677.371094 180.917969 L 638.777344 201.449219 L 638.6875 201.5 L 624.269531 216.492188 L 618.113281 210.574219 L 682.046875 144.097656 C 694.859375 130.777344 716.191406 99.515625 715.148438 39.820312 C 715.078125 35.859375 713.441406 32.144531 710.542969 29.355469 C 707.644531 26.566406 703.867188 25.078125 699.90625 25.164062 C 640.214844 26.445312 609.808594 48.980469 597 62.300781 L 533.066406 128.777344 L 526.914062 122.859375 L 541.261719 107.941406 L 560.390625 68.410156 C 561.609375 65.886719 561.058594 62.96875 558.992188 60.980469 C 556.925781 58.992188 553.988281 58.558594 551.511719 59.875 L 512.921875 80.410156 L 358.265625 241.167969 L 323.863281 244.4375 C 318.441406 244.957031 313.378906 247.402344 309.605469 251.324219 L 293.859375 267.695312 L 292.96875 268.625 L 286.851562 274.984375 L 305.082031 297.21875 L 279.554688 323.765625 L 262.539062 329.734375 L 301.957031 367.644531 L 307.867188 351.367188 L 330.332031 328.011719 L 334.742188 333.386719 L 327.28125 341.144531 L 336.996094 350.484375 L 323.246094 357.867188 L 350.859375 384.421875 L 357.226562 369.941406 L 366.484375 378.847656 L 347.933594 398.136719 C 345.75 400.40625 345.820312 404.03125 348.09375 406.214844 C 350.363281 408.398438 353.988281 408.328125 356.171875 406.058594 L 374.722656 386.769531 L 383.511719 395.21875 L 369.761719 402.601562 L 397.375 429.160156 L 403.738281 414.675781 L 413.929688 424.476562 L 421.386719 416.71875 L 427.351562 421.234375 L 404.847656 444.632812 L 388.8125 451.175781 L 428.230469 489.085938 L 433.53125 471.851562 L 459.105469 445.261719 L 481.160156 461.953125 L 481.613281 462.296875 L 487.734375 455.933594 L 488.625 455.007812 L 504.371094 438.636719 C 508.144531 434.710938 510.386719 429.558594 510.695312 424.121094 Z M 515.417969 339.597656 C 515.46875 338.757812 515.539062 337.917969 515.640625 337.078125 C 515.652344 337.007812 515.667969 336.933594 515.675781 336.863281 C 515.773438 336.089844 515.886719 335.320312 516.027344 334.554688 C 516.03125 334.535156 516.035156 334.519531 516.039062 334.5 C 516.351562 332.847656 516.765625 331.203125 517.285156 329.582031 L 536.574219 309.53125 L 563.21875 335.15625 L 512.734375 387.652344 Z M 521.332031 320.785156 L 537.871094 294.007812 L 590.371094 239.417969 L 596.527344 245.339844 L 518.402344 326.570312 C 519.226562 324.570312 520.195312 322.628906 521.332031 320.785156 Z M 452.054688 361.738281 L 451.484375 361.191406 L 424.390625 335.132812 L 436.925781 322.101562 C 439.109375 319.832031 439.039062 316.207031 436.769531 314.023438 C 434.496094 311.835938 430.871094 311.910156 428.6875 314.179688 L 416.15625 327.210938 L 389.039062 301.132812 L 388.492188 300.605469 L 508.25 176.082031 L 509.144531 175.15625 L 552.839844 129.722656 C 562.539062 119.636719 585.582031 102.570312 630.933594 101.597656 C 633.667969 101.539062 636.273438 102.566406 638.277344 104.496094 C 640.28125 106.421875 641.410156 108.984375 641.457031 111.71875 C 642.253906 157.074219 626.101562 180.765625 616.402344 190.851562 L 574.992188 233.910156 L 570.816406 238.25 Z M 444.535156 206.660156 L 417.890625 181.03125 L 429.941406 168.5 L 456.589844 194.125 Z M 499.171875 151.707031 L 505.324219 157.625 L 453.984375 211.007812 L 426.808594 229.617188 C 425.015625 230.84375 423.121094 231.902344 421.164062 232.820312 Z M 570.390625 327.699219 L 543.746094 302.074219 L 555.796875 289.539062 L 582.445312 315.167969 Z M 677.972656 182.050781 C 679.949219 181 682.300781 181.351562 683.960938 182.949219 C 685.617188 184.542969 686.0625 186.878906 685.089844 188.894531 L 666.121094 228.164062 L 664.246094 230.113281 L 637.597656 204.484375 L 639.472656 202.535156 Z M 630.425781 211.941406 L 657.074219 237.570312 L 589.617188 307.710938 L 562.96875 282.082031 L 597.453125 246.226562 L 625.195312 217.382812 Z M 623.378906 217.417969 L 597.417969 244.410156 L 591.261719 238.492188 L 617.222656 211.5 Z M 699.933594 26.449219 C 703.550781 26.371094 707 27.734375 709.652344 30.28125 C 712.300781 32.832031 713.796875 36.226562 713.859375 39.84375 C 714.625 83.320312 703.457031 111.542969 692.453125 128.703125 L 611.976562 51.308594 C 628.695312 39.640625 656.460938 27.382812 699.933594 26.449219 Z M 597.925781 63.191406 C 601.097656 59.894531 605.363281 56.027344 610.902344 52.058594 L 691.742188 129.804688 C 687.992188 135.492188 684.292969 139.90625 681.121094 143.207031 L 617.1875 209.679688 L 589.445312 238.527344 L 541.078125 288.820312 L 571.789062 239.09375 L 617.328125 191.746094 C 627.167969 181.515625 643.550781 157.515625 642.746094 111.695312 C 642.691406 108.621094 641.421875 105.734375 639.171875 103.566406 C 636.917969 101.402344 633.984375 100.246094 630.910156 100.3125 C 585.09375 101.296875 561.75 118.601562 551.914062 128.832031 L 508.21875 174.265625 L 507.980469 174.035156 L 459.210938 207.429688 L 506.25 158.515625 L 533.996094 129.671875 L 597.925781 63.195312 Z M 532.175781 129.703125 L 506.214844 156.699219 L 500.0625 150.777344 L 526.019531 123.785156 Z M 498.242188 150.816406 L 463.761719 186.667969 L 437.113281 161.042969 L 504.570312 90.902344 L 531.21875 116.53125 L 525.988281 121.96875 Z M 552.121094 61.011719 C 554.09375 59.960938 556.445312 60.3125 558.105469 61.90625 C 559.765625 63.503906 560.207031 65.835938 559.234375 67.851562 L 540.265625 107.125 L 538.390625 109.070312 L 511.742188 83.445312 L 513.617188 81.496094 Z M 410.71875 188.488281 L 437.363281 214.117188 L 418.15625 234.089844 C 418.152344 234.089844 418.148438 234.09375 418.144531 234.09375 C 416.523438 234.699219 414.875 235.195312 413.207031 235.582031 C 413.171875 235.589844 413.140625 235.601562 413.105469 235.609375 C 412.355469 235.78125 411.597656 235.925781 410.84375 236.054688 C 410.738281 236.070312 410.636719 236.097656 410.53125 236.113281 C 409.679688 236.253906 408.824219 236.363281 407.96875 236.445312 L 360.230469 240.984375 Z M 310.535156 252.21875 C 314.09375 248.515625 318.871094 246.207031 323.988281 245.722656 L 408.089844 237.722656 C 408.984375 237.636719 409.875 237.519531 410.761719 237.375 C 410.886719 237.355469 411.011719 237.324219 411.140625 237.304688 C 411.910156 237.171875 412.679688 237.023438 413.441406 236.847656 C 413.527344 236.828125 413.617188 236.800781 413.707031 236.777344 C 414.511719 236.589844 415.304688 236.375 416.09375 236.136719 C 416.15625 236.121094 416.21875 236.09375 416.28125 236.078125 C 417.09375 235.828125 417.894531 235.558594 418.6875 235.261719 C 418.703125 235.253906 418.722656 235.25 418.742188 235.242188 L 418.878906 235.191406 L 418.890625 235.179688 C 421.929688 234.019531 424.839844 232.519531 427.53125 230.675781 L 504.929688 177.679688 L 387.261719 300.027344 C 386.859375 300.066406 386.460938 300.125 386.0625 300.167969 C 385.601562 300.222656 385.136719 300.269531 384.675781 300.332031 C 384.222656 300.394531 383.773438 300.476562 383.324219 300.546875 C 382.878906 300.621094 382.429688 300.683594 381.984375 300.765625 C 381.53125 300.847656 381.085938 300.949219 380.632812 301.042969 C 380.199219 301.132812 379.761719 301.214844 379.332031 301.3125 C 378.878906 301.414062 378.433594 301.535156 377.988281 301.644531 C 377.5625 301.753906 377.132812 301.855469 376.710938 301.96875 C 376.265625 302.09375 375.824219 302.230469 375.382812 302.363281 C 374.964844 302.488281 374.546875 302.605469 374.132812 302.738281 C 373.691406 302.882812 373.257812 303.042969 372.820312 303.191406 C 372.414062 303.335938 372.003906 303.46875 371.601562 303.617188 C 371.164062 303.777344 370.734375 303.957031 370.304688 304.128906 C 369.90625 304.289062 369.507812 304.4375 369.117188 304.601562 C 368.6875 304.785156 368.261719 304.980469 367.835938 305.171875 C 367.453125 305.347656 367.066406 305.511719 366.683594 305.691406 C 366.261719 305.894531 365.851562 306.109375 365.433594 306.320312 C 365.054688 306.507812 364.675781 306.691406 364.304688 306.886719 C 363.894531 307.105469 363.492188 307.339844 363.082031 307.570312 C 362.71875 307.777344 362.347656 307.972656 361.988281 308.183594 C 361.585938 308.421875 361.191406 308.675781 360.792969 308.921875 C 360.441406 309.144531 360.082031 309.355469 359.730469 309.582031 C 359.335938 309.839844 358.953125 310.113281 358.566406 310.378906 C 358.226562 310.613281 357.878906 310.835938 357.542969 311.078125 C 357.144531 311.363281 356.757812 311.664062 356.367188 311.960938 C 356.054688 312.199219 355.734375 312.425781 355.429688 312.667969 C 355.023438 312.988281 354.632812 313.320312 354.234375 313.652344 C 353.953125 313.886719 353.660156 314.117188 353.382812 314.355469 C 352.941406 314.734375 352.519531 315.132812 352.089844 315.527344 C 351.867188 315.730469 351.636719 315.929688 351.414062 316.136719 C 350.773438 316.746094 350.144531 317.371094 349.527344 318.007812 L 347.917969 319.6875 L 294.789062 268.589844 Z M 264.9375 330.257812 L 279.777344 325.046875 L 306.667969 350.910156 L 301.425781 365.347656 Z M 307.488281 349.914062 L 280.839844 324.285156 L 305.90625 298.222656 L 329.511719 327.011719 L 307.484375 349.914062 Z M 331.230469 327.082031 L 331.273438 327.035156 L 306.027344 296.246094 L 305.984375 296.289062 L 288.570312 275.054688 L 293.898438 269.515625 L 347.027344 320.613281 L 335.640625 332.457031 Z M 329.101562 341.109375 L 335.5625 334.390625 L 347.953125 321.507812 L 348.84375 320.582031 L 350.457031 318.90625 C 351.058594 318.277344 351.675781 317.667969 352.300781 317.074219 C 352.511719 316.875 352.734375 316.683594 352.949219 316.488281 C 353.371094 316.101562 353.792969 315.707031 354.226562 315.332031 C 354.472656 315.121094 354.726562 314.921875 354.976562 314.714844 C 355.390625 314.367188 355.800781 314.015625 356.226562 313.679688 C 356.507812 313.460938 356.796875 313.253906 357.078125 313.039062 C 357.484375 312.730469 357.886719 312.417969 358.300781 312.121094 C 358.601562 311.90625 358.910156 311.707031 359.214844 311.496094 C 359.621094 311.214844 360.027344 310.929688 360.441406 310.660156 C 360.757812 310.453125 361.082031 310.265625 361.398438 310.066406 C 361.8125 309.804688 362.226562 309.539062 362.648438 309.292969 C 362.976562 309.101562 363.3125 308.921875 363.640625 308.734375 C 364.066406 308.496094 364.484375 308.253906 364.914062 308.023438 C 365.253906 307.84375 365.605469 307.675781 365.945312 307.503906 C 366.378906 307.285156 366.804688 307.0625 367.242188 306.855469 C 367.597656 306.6875 367.960938 306.53125 368.316406 306.371094 C 368.753906 306.175781 369.183594 305.972656 369.621094 305.789062 C 369.992188 305.632812 370.367188 305.492188 370.738281 305.34375 C 371.175781 305.167969 371.609375 304.988281 372.054688 304.824219 C 372.429688 304.683594 372.816406 304.558594 373.195312 304.425781 C 373.640625 304.269531 374.082031 304.109375 374.53125 303.964844 C 374.917969 303.839844 375.3125 303.730469 375.703125 303.613281 C 376.152344 303.476562 376.601562 303.335938 377.054688 303.210938 C 377.449219 303.105469 377.851562 303.011719 378.246094 302.910156 C 378.703125 302.792969 379.160156 302.671875 379.621094 302.566406 C 380.019531 302.476562 380.421875 302.402344 380.824219 302.316406 C 381.289062 302.222656 381.753906 302.117188 382.222656 302.03125 C 382.625 301.957031 383.03125 301.898438 383.4375 301.832031 C 383.910156 301.757812 384.378906 301.675781 384.855469 301.609375 C 385.265625 301.550781 385.679688 301.511719 386.089844 301.460938 C 386.515625 301.410156 386.941406 301.359375 387.371094 301.316406 L 415.261719 328.136719 L 367.378906 377.925781 Z M 355.246094 405.171875 C 353.554688 406.929688 350.746094 406.984375 348.988281 405.292969 C 347.226562 403.601562 347.171875 400.792969 348.863281 399.03125 L 367.414062 379.742188 L 416.1875 329.027344 L 417.078125 328.101562 L 429.613281 315.070312 C 431.304688 313.3125 434.113281 313.253906 435.875 314.949219 C 437.632812 316.640625 437.6875 319.449219 435.996094 321.210938 L 423.464844 334.242188 L 422.574219 335.167969 L 373.800781 385.882812 Z M 413.894531 422.660156 L 375.617188 385.847656 L 423.5 336.058594 L 451.386719 362.882812 C 451.363281 363.28125 451.328125 363.683594 451.296875 364.078125 C 451.261719 364.527344 451.234375 364.972656 451.191406 365.417969 C 451.148438 365.863281 451.085938 366.304688 451.03125 366.746094 C 450.976562 367.1875 450.933594 367.628906 450.871094 368.066406 C 450.804688 368.507812 450.726562 368.949219 450.652344 369.386719 C 450.582031 369.820312 450.515625 370.253906 450.4375 370.683594 C 450.351562 371.125 450.253906 371.566406 450.160156 372.003906 C 450.070312 372.425781 449.988281 372.847656 449.890625 373.265625 C 449.789062 373.710938 449.667969 374.144531 449.554688 374.585938 C 449.449219 374.996094 449.351562 375.410156 449.238281 375.816406 C 449.113281 376.257812 448.976562 376.691406 448.84375 377.128906 C 448.71875 377.527344 448.605469 377.929688 448.476562 378.328125 C 448.332031 378.765625 448.171875 379.199219 448.015625 379.636719 C 447.882812 380.023438 447.753906 380.410156 447.609375 380.792969 C 447.445312 381.230469 447.261719 381.660156 447.085938 382.089844 C 446.9375 382.464844 446.792969 382.84375 446.632812 383.214844 C 446.449219 383.648438 446.246094 384.074219 446.050781 384.5 C 445.886719 384.863281 445.730469 385.226562 445.558594 385.582031 C 445.351562 386.011719 445.132812 386.425781 444.914062 386.847656 C 444.734375 387.199219 444.566406 387.554688 444.378906 387.902344 C 444.148438 388.324219 443.902344 388.742188 443.664062 389.160156 C 443.476562 389.492188 443.296875 389.828125 443.101562 390.15625 C 442.84375 390.582031 442.574219 390.996094 442.308594 391.417969 C 442.113281 391.730469 441.925781 392.046875 441.722656 392.355469 C 441.441406 392.777344 441.144531 393.191406 440.851562 393.609375 C 440.648438 393.902344 440.453125 394.199219 440.246094 394.484375 C 439.925781 394.921875 439.59375 395.347656 439.261719 395.777344 C 439.066406 396.03125 438.875 396.296875 438.671875 396.546875 C 438.3125 397 437.9375 397.4375 437.5625 397.875 C 437.375 398.097656 437.195312 398.324219 437.003906 398.539062 C 436.433594 399.191406 435.847656 399.832031 435.25 400.453125 L 433.636719 402.132812 L 432.746094 403.058594 L 420.355469 415.941406 Z M 391.128906 451.625 L 405.355469 445.820312 L 432.242188 471.679688 L 427.617188 486.714844 Z M 432.964844 470.59375 L 406.316406 444.964844 L 428.386719 422.019531 L 442.339844 432.578125 L 458.074219 444.484375 Z M 481.480469 460.585938 L 454.414062 440.101562 L 428.253906 420.304688 L 428.25 420.304688 L 422.285156 415.789062 L 433.675781 403.949219 L 486.808594 455.050781 Z M 487.699219 454.121094 L 434.566406 403.019531 L 436.179688 401.34375 C 436.792969 400.707031 437.394531 400.054688 437.976562 399.386719 C 438.167969 399.171875 438.34375 398.945312 438.53125 398.726562 C 438.917969 398.269531 439.308594 397.816406 439.679688 397.351562 C 439.882812 397.097656 440.074219 396.832031 440.273438 396.574219 C 440.613281 396.132812 440.960938 395.691406 441.289062 395.238281 C 441.484375 394.96875 441.671875 394.683594 441.863281 394.40625 C 442.179688 393.960938 442.496094 393.515625 442.796875 393.0625 C 442.992188 392.765625 443.171875 392.460938 443.359375 392.164062 C 443.644531 391.714844 443.933594 391.273438 444.203125 390.816406 C 444.386719 390.507812 444.558594 390.195312 444.734375 389.882812 C 444.996094 389.425781 445.261719 388.972656 445.511719 388.507812 C 445.683594 388.195312 445.835938 387.875 445.996094 387.558594 C 446.242188 387.085938 446.488281 386.617188 446.71875 386.140625 C 446.871094 385.820312 447.011719 385.496094 447.160156 385.171875 C 447.382812 384.6875 447.609375 384.207031 447.820312 383.714844 C 447.960938 383.386719 448.089844 383.050781 448.222656 382.71875 C 448.421875 382.226562 448.628906 381.738281 448.816406 381.242188 C 448.941406 380.902344 449.054688 380.558594 449.175781 380.214844 C 449.355469 379.71875 449.539062 379.222656 449.703125 378.71875 C 449.816406 378.378906 449.914062 378.03125 450.015625 377.6875 C 450.175781 377.175781 450.335938 376.667969 450.480469 376.152344 C 450.578125 375.804688 450.660156 375.457031 450.75 375.105469 C 450.886719 374.585938 451.027344 374.070312 451.148438 373.542969 C 451.234375 373.1875 451.300781 372.828125 451.375 372.472656 C 451.488281 371.949219 451.605469 371.425781 451.703125 370.902344 C 451.773438 370.535156 451.828125 370.164062 451.890625 369.796875 C 451.976562 369.273438 452.070312 368.753906 452.148438 368.226562 C 452.199219 367.847656 452.242188 367.464844 452.289062 367.082031 C 452.355469 366.5625 452.421875 366.042969 452.472656 365.519531 C 452.511719 365.132812 452.535156 364.738281 452.566406 364.347656 C 452.605469 363.878906 452.652344 363.414062 452.675781 362.945312 L 567.566406 243.484375 L 533.792969 298.164062 L 533.652344 298.394531 L 520.238281 320.109375 C 518.511719 322.90625 517.136719 325.910156 516.121094 329.027344 L 516.109375 329.042969 C 516.101562 329.070312 516.097656 329.09375 516.089844 329.117188 C 515.851562 329.84375 515.644531 330.578125 515.449219 331.320312 C 515.417969 331.441406 515.378906 331.558594 515.347656 331.679688 C 515.164062 332.398438 515.007812 333.121094 514.867188 333.847656 C 514.835938 333.992188 514.796875 334.140625 514.773438 334.289062 C 514.640625 334.984375 514.539062 335.679688 514.445312 336.382812 C 514.421875 336.558594 514.386719 336.734375 514.367188 336.914062 C 514.261719 337.78125 514.183594 338.652344 514.132812 339.527344 L 511.253906 391.042969 L 509.410156 424.054688 C 509.121094 429.183594 507.003906 434.050781 503.445312 437.753906 Z M 353.25 274.90625 C 348.460938 270.304688 340.824219 270.453125 336.21875 275.238281 C 331.613281 280.027344 331.765625 287.667969 336.550781 292.269531 C 341.335938 296.875 348.980469 296.726562 353.582031 291.9375 C 358.1875 287.152344 358.039062 279.511719 353.25 274.90625 Z M 337.441406 291.34375 C 333.164062 287.230469 333.03125 280.40625 337.144531 276.128906 C 341.257812 271.855469 348.082031 271.722656 352.359375 275.835938 C 356.636719 279.945312 356.769531 286.773438 352.65625 291.046875 C 348.542969 295.324219 341.71875 295.457031 337.441406 291.34375 Z M 449.816406 401.027344 L 475.15625 425.394531 L 491.507812 408.394531 L 466.167969 384.023438 Z M 466.203125 385.84375 L 489.6875 408.429688 L 475.117188 423.578125 L 451.632812 400.992188 Z M 275.480469 356.40625 C 265.277344 346.589844 249.105469 350.210938 234.277344 365.628906 C 218.359375 382.179688 216.699219 416.496094 216.6875 416.84375 L 216.65625 417.570312 L 217.382812 417.511719 C 217.726562 417.484375 251.953125 414.488281 267.871094 397.9375 C 282.699219 382.519531 285.683594 366.21875 275.480469 356.40625 Z M 218.015625 416.15625 C 218.351562 411.089844 220.90625 381.386719 235.207031 366.519531 C 249.488281 351.664062 264.949219 348.058594 274.589844 357.332031 C 284.230469 366.601562 281.230469 382.191406 266.945312 397.042969 C 252.652344 411.910156 223.066406 415.625 218.015625 416.15625 Z M 401.398438 477.5625 C 391.195312 467.75 375.019531 471.371094 360.195312 486.785156 C 344.277344 503.335938 342.617188 537.65625 342.601562 538 L 342.570312 538.730469 L 343.296875 538.667969 C 343.640625 538.640625 377.871094 535.648438 393.789062 519.09375 C 408.617188 503.679688 411.601562 487.375 401.398438 477.5625 Z M 343.929688 537.316406 C 344.265625 532.246094 346.828125 502.539062 361.121094 487.675781 C 375.40625 472.824219 390.867188 469.21875 400.507812 478.488281 C 410.148438 487.761719 407.148438 503.351562 392.863281 518.203125 C 378.570312 533.066406 348.984375 536.78125 343.929688 537.316406 Z M 330.414062 378.054688 C 326.214844 374.015625 318.917969 371.589844 307.992188 382.949219 C 298.378906 392.941406 294.765625 413.628906 294.617188 414.507812 L 294.460938 415.4375 L 295.386719 415.242188 C 296.253906 415.0625 316.785156 410.644531 326.398438 400.648438 C 337.324219 389.289062 334.609375 382.09375 330.414062 378.054688 Z M 296.066406 413.765625 C 296.902344 409.539062 300.726562 392.355469 308.917969 383.839844 C 316.984375 375.453125 324.105469 373.773438 329.519531 378.980469 C 334.933594 384.1875 333.535156 391.371094 325.472656 399.757812 C 317.28125 408.273438 300.257812 412.765625 296.066406 413.765625 Z M 376.929688 422.789062 C 372.730469 418.753906 365.433594 416.324219 354.507812 427.683594 C 344.894531 437.679688 341.28125 458.367188 341.132812 459.242188 L 340.976562 460.171875 L 341.898438 459.980469 C 342.769531 459.796875 363.300781 455.378906 372.914062 445.386719 C 383.835938 434.023438 381.125 426.828125 376.929688 422.789062 Z M 342.582031 458.503906 C 343.417969 454.277344 347.238281 437.097656 355.433594 428.574219 C 363.5 420.191406 370.621094 418.511719 376.035156 423.71875 C 381.453125 428.925781 380.050781 436.109375 371.988281 444.496094 C 363.792969 453.011719 346.773438 457.5 342.582031 458.503906 Z M 476.253906 67.222656 L 477.179688 68.113281 L 419.023438 128.582031 L 418.097656 127.691406 Z M 444.296875 119.660156 L 443.371094 118.765625 L 476.796875 84.011719 L 477.722656 84.902344 Z M 422.296875 142.535156 L 421.371094 141.640625 L 435.152344 127.3125 L 436.078125 128.203125 Z M 598.976562 348.949219 L 540.820312 409.417969 L 539.894531 408.527344 L 598.050781 348.058594 Z M 540.277344 392.628906 L 539.351562 391.738281 L 572.777344 356.980469 L 573.703125 357.871094 Z M 581.921875 349.328125 L 580.996094 348.4375 L 594.777344 334.105469 L 595.703125 334.996094 Z M 581.921875 349.328125 " fill-opacity="1" fill-rule="nonzero"/></g></g></g><g clip-path="url(#c1aa3fccaa)"><path fill="#eaf0ed" d="M 349.425781 109.925781 C 349.425781 110.691406 349.351562 111.453125 349.199219 112.203125 C 349.050781 112.957031 348.828125 113.6875 348.535156 114.394531 C 348.242188 115.101562 347.882812 115.777344 347.457031 116.414062 C 347.03125 117.050781 346.546875 117.640625 346.003906 118.183594 C 345.460938 118.726562 344.871094 119.210938 344.234375 119.636719 C 343.597656 120.0625 342.925781 120.421875 342.214844 120.714844 C 341.507812 121.007812 340.777344 121.230469 340.023438 121.378906 C 339.273438 121.527344 338.511719 121.605469 337.746094 121.605469 C 336.980469 121.605469 336.21875 121.527344 335.46875 121.378906 C 334.714844 121.230469 333.984375 121.007812 333.277344 120.714844 C 332.570312 120.421875 331.894531 120.0625 331.257812 119.636719 C 330.621094 119.210938 330.03125 118.726562 329.488281 118.183594 C 328.945312 117.640625 328.460938 117.050781 328.035156 116.414062 C 327.609375 115.777344 327.25 115.101562 326.957031 114.394531 C 326.664062 113.6875 326.441406 112.957031 326.292969 112.203125 C 326.144531 111.453125 326.070312 110.691406 326.070312 109.925781 C 326.070312 109.160156 326.144531 108.398438 326.292969 107.648438 C 326.441406 106.894531 326.664062 106.164062 326.957031 105.457031 C 327.25 104.75 327.609375 104.074219 328.035156 103.4375 C 328.460938 102.800781 328.945312 102.210938 329.488281 101.667969 C 330.03125 101.125 330.621094 100.640625 331.257812 100.214844 C 331.894531 99.789062 332.570312 99.429688 333.277344 99.136719 C 333.984375 98.84375 334.714844 98.621094 335.46875 98.472656 C 336.21875 98.324219 336.980469 98.246094 337.746094 98.246094 C 338.511719 98.246094 339.273438 98.324219 340.023438 98.472656 C 340.777344 98.621094 341.507812 98.84375 342.214844 99.136719 C 342.925781 99.429688 343.597656 99.789062 344.234375 100.214844 C 344.871094 100.640625 345.460938 101.125 346.003906 101.667969 C 346.546875 102.210938 347.03125 102.800781 347.457031 103.4375 C 347.882812 104.074219 348.242188 104.75 348.535156 105.457031 C 348.828125 106.164062 349.050781 106.894531 349.199219 107.648438 C 349.351562 108.398438 349.425781 109.160156 349.425781 109.925781 Z M 349.425781 109.925781 " fill-opacity="1" fill-rule="nonzero"/><path fill="#1a1a1a" d="M 337.746094 121.628906 C 334.621094 121.628906 331.683594 120.40625 329.472656 118.199219 C 327.265625 115.988281 326.046875 113.050781 326.046875 109.925781 C 326.046875 106.800781 327.265625 103.863281 329.472656 101.652344 C 331.683594 99.445312 334.621094 98.222656 337.746094 98.222656 C 340.871094 98.222656 343.808594 99.445312 346.019531 101.652344 C 348.230469 103.863281 349.449219 106.800781 349.449219 109.925781 C 349.449219 113.050781 348.230469 115.988281 346.019531 118.199219 C 343.808594 120.40625 340.871094 121.628906 337.746094 121.628906 Z M 337.746094 98.925781 C 334.808594 98.925781 332.046875 100.070312 329.96875 102.148438 C 327.890625 104.226562 326.746094 106.988281 326.746094 109.925781 C 326.746094 112.863281 327.890625 115.625 329.96875 117.703125 C 332.046875 119.78125 334.808594 120.925781 337.746094 120.925781 C 340.683594 120.925781 343.445312 119.78125 345.523438 117.703125 C 347.601562 115.625 348.746094 112.863281 348.746094 109.925781 C 348.746094 106.988281 347.601562 104.226562 345.523438 102.148438 C 343.445312 100.070312 340.683594 98.925781 337.746094 98.925781 Z M 337.746094 98.925781 " fill-opacity="1" fill-rule="nonzero"/></g><g clip-path="url(#a9f19e6b96)"><g clip-path="url(#38d61253df)"><g clip-path="url(#8ce653f6d6)"><path fill="#ffd740" d="M 663.5 412.066406 L 664.398438 423.394531 L 674.253906 429.078125 L 663.75 433.441406 L 661.390625 444.558594 L 654 435.921875 L 642.691406 437.113281 L 648.621094 427.417969 L 643.996094 417.03125 L 655.050781 419.671875 Z M 663.5 412.066406 " fill-opacity="1" fill-rule="nonzero"/></g></g></g><g clip-path="url(#57d006d3fd)"><g clip-path="url(#7c6e7c4a39)"><g clip-path="url(#6c3afae133)"><path fill="#1a1a1a" d="M 661.53125 445.371094 L 653.796875 436.335938 L 641.972656 437.582031 L 648.175781 427.4375 L 643.335938 416.570312 L 654.898438 419.332031 L 663.738281 411.375 L 664.6875 423.230469 L 674.984375 429.171875 L 664 433.738281 Z M 644.914062 417.886719 L 649.199219 427.5 L 643.707031 436.480469 L 654.179688 435.378906 L 661.019531 443.375 L 663.207031 433.078125 L 672.929688 429.042969 L 663.8125 423.785156 L 662.976562 413.289062 L 655.15625 420.332031 Z M 644.914062 417.886719 " fill-opacity="1" fill-rule="nonzero"/></g></g></g></svg>