<svg xmlns="http://www.w3.org/2000/svg" xmlns:xlink="http://www.w3.org/1999/xlink" width="500" zoomAndPan="magnify" viewBox="0 0 375 374.999991" height="500" preserveAspectRatio="xMidYMid meet" version="1.0"><defs><g/><clipPath id="64d79dd5fa"><path d="M 50.980469 151.5 L 99.730469 151.5 L 99.730469 200.25 L 50.980469 200.25 Z M 50.980469 151.5 " clip-rule="nonzero"/></clipPath></defs><g clip-path="url(#64d79dd5fa)"><path fill="#9374fe" d="M 75.402344 200.34375 C 61.9375 200.34375 50.980469 189.386719 50.980469 175.921875 C 50.980469 162.457031 61.9375 151.5 75.402344 151.5 C 88.871094 151.5 99.824219 162.457031 99.824219 175.921875 C 99.824219 189.386719 88.871094 200.34375 75.402344 200.34375 Z M 75.402344 200.34375 " fill-opacity="1" fill-rule="nonzero"/></g><path fill="#f8f8f8" d="M 68.628906 182.402344 C 68.269531 182.402344 67.902344 182.285156 67.59375 182.050781 L 61.441406 177.339844 C 61.027344 177.023438 60.777344 176.53125 60.773438 176.003906 C 60.765625 175.480469 61 174.980469 61.410156 174.652344 L 67.4375 169.820312 C 68.171875 169.226562 69.246094 169.347656 69.835938 170.082031 C 70.425781 170.816406 70.308594 171.890625 69.574219 172.480469 L 65.246094 175.953125 L 69.667969 179.335938 C 70.417969 179.910156 70.5625 180.984375 69.988281 181.730469 C 69.652344 182.171875 69.144531 182.402344 68.628906 182.402344 Z M 68.628906 182.402344 " fill-opacity="1" fill-rule="nonzero"/><path fill="#f8f8f8" d="M 82.175781 182.402344 C 81.664062 182.402344 81.15625 182.171875 80.820312 181.730469 C 80.246094 180.984375 80.390625 179.910156 81.136719 179.335938 L 85.558594 175.953125 L 81.234375 172.480469 C 80.5 171.890625 80.378906 170.816406 80.972656 170.082031 C 81.5625 169.347656 82.636719 169.226562 83.371094 169.820312 L 89.394531 174.652344 C 89.804688 174.980469 90.039062 175.480469 90.035156 176.003906 C 90.027344 176.53125 89.78125 177.023438 89.363281 177.339844 L 83.214844 182.050781 C 82.902344 182.285156 82.539062 182.402344 82.175781 182.402344 Z M 82.175781 182.402344 " fill-opacity="1" fill-rule="nonzero"/><path fill="#f8f8f8" d="M 72.628906 185.671875 C 72.480469 185.671875 72.328125 185.652344 72.179688 185.609375 C 71.269531 185.363281 70.730469 184.425781 70.976562 183.515625 L 75.335938 167.433594 C 75.585938 166.523438 76.523438 165.988281 77.433594 166.234375 C 78.34375 166.480469 78.878906 167.417969 78.632812 168.328125 L 74.273438 184.410156 C 74.070312 185.167969 73.378906 185.667969 72.628906 185.667969 Z M 72.628906 185.671875 " fill-opacity="1" fill-rule="nonzero"/><g fill="#09090a" fill-opacity="1"><g transform="translate(113.154086, 203.999987)"><g><path d="M 31.921875 -49.5 L 31.921875 -39.59375 L 14.875 -39.59375 L 14.875 -29.765625 L 31.203125 -29.765625 L 31.203125 -19.859375 L 14.875 -19.859375 L 14.875 -9.90625 L 31.921875 -9.90625 L 31.921875 0 L 3.59375 0 L 3.59375 -49.5 Z M 31.921875 -49.5 "/></g></g></g><g fill="#09090a" fill-opacity="1"><g transform="translate(142.314056, 203.999987)"><g><path d="M 3.59375 0 L 3.59375 -30.78125 L 14.21875 -30.78125 L 14.21875 -27.546875 L 14.34375 -27.546875 C 17.101562 -30.304688 20.039062 -31.6875 23.15625 -31.6875 C 25.394531 -31.6875 27.492188 -31.222656 29.453125 -30.296875 C 31.421875 -29.378906 32.90625 -27.960938 33.90625 -26.046875 C 37.019531 -29.804688 40.414062 -31.6875 44.09375 -31.6875 C 47.375 -31.6875 50.191406 -30.765625 52.546875 -28.921875 C 54.910156 -27.078125 56.09375 -24.195312 56.09375 -20.28125 L 56.09375 0 L 45.484375 0 L 45.484375 -17.40625 C 45.484375 -19.039062 45.03125 -20.40625 44.125 -21.5 C 43.226562 -22.601562 41.878906 -23.15625 40.078125 -23.15625 C 38.515625 -23.15625 37.320312 -22.6875 36.5 -21.75 C 35.6875 -20.8125 35.238281 -19.679688 35.15625 -18.359375 L 35.15625 0 L 24.546875 0 L 24.546875 -17.40625 C 24.546875 -19.039062 24.09375 -20.40625 23.1875 -21.5 C 22.289062 -22.601562 20.941406 -23.15625 19.140625 -23.15625 C 17.503906 -23.15625 16.273438 -22.644531 15.453125 -21.625 C 14.628906 -20.601562 14.21875 -19.394531 14.21875 -18 L 14.21875 0 Z M 3.59375 0 "/></g></g></g><g fill="#09090a" fill-opacity="1"><g transform="translate(195.774006, 203.999987)"><g><path d="M 34.734375 -13.921875 L 12.421875 -13.921875 C 12.421875 -11.765625 13.117188 -10.164062 14.515625 -9.125 C 15.921875 -8.082031 17.441406 -7.5625 19.078125 -7.5625 C 20.796875 -7.5625 22.15625 -7.789062 23.15625 -8.25 C 24.15625 -8.707031 25.296875 -9.617188 26.578125 -10.984375 L 34.265625 -7.140625 C 31.054688 -1.773438 25.734375 0.90625 18.296875 0.90625 C 13.660156 0.90625 9.679688 -0.679688 6.359375 -3.859375 C 3.035156 -7.046875 1.375 -10.878906 1.375 -15.359375 C 1.375 -19.835938 3.035156 -23.675781 6.359375 -26.875 C 9.679688 -30.082031 13.660156 -31.6875 18.296875 -31.6875 C 23.179688 -31.6875 27.148438 -30.273438 30.203125 -27.453125 C 33.265625 -24.628906 34.796875 -20.597656 34.796875 -15.359375 C 34.796875 -14.640625 34.773438 -14.160156 34.734375 -13.921875 Z M 12.71875 -19.796875 L 24.421875 -19.796875 C 24.179688 -21.398438 23.550781 -22.628906 22.53125 -23.484375 C 21.507812 -24.347656 20.195312 -24.78125 18.59375 -24.78125 C 16.832031 -24.78125 15.429688 -24.316406 14.390625 -23.390625 C 13.359375 -22.472656 12.800781 -21.273438 12.71875 -19.796875 Z M 12.71875 -19.796875 "/></g></g></g><g fill="#09090a" fill-opacity="1"><g transform="translate(226.31397, 203.999987)"><g><path d="M 38.765625 -30.78125 L 24.125 -16.078125 L 40.203125 0 L 26.515625 0 L 14.21875 -12.296875 L 14.21875 0 L 3.59375 0 L 3.59375 -51.59375 L 14.21875 -51.59375 L 14.21875 -20.046875 L 24.953125 -30.78125 Z M 38.765625 -30.78125 "/></g></g></g><g fill="#09090a" fill-opacity="1"><g transform="translate(259.433925, 203.999987)"><g><path d="M 5.6875 -3.796875 C 2.8125 -6.941406 1.375 -10.796875 1.375 -15.359375 C 1.375 -19.921875 2.8125 -23.78125 5.6875 -26.9375 C 8.570312 -30.101562 12.238281 -31.6875 16.6875 -31.6875 C 20.757812 -31.6875 24.117188 -30.40625 26.765625 -27.84375 L 26.765625 -30.78125 L 37.375 -30.78125 L 37.375 0 L 26.875 0 L 26.875 -3.484375 L 26.765625 -3.484375 C 24.117188 -0.554688 20.757812 0.90625 16.6875 0.90625 C 12.238281 0.90625 8.570312 -0.660156 5.6875 -3.796875 Z M 14.71875 -20.578125 C 13.34375 -19.222656 12.65625 -17.484375 12.65625 -15.359375 C 12.65625 -13.242188 13.316406 -11.515625 14.640625 -10.171875 C 15.960938 -8.828125 17.703125 -8.15625 19.859375 -8.15625 C 21.941406 -8.15625 23.648438 -8.832031 24.984375 -10.1875 C 26.328125 -11.550781 27 -13.273438 27 -15.359375 C 27 -17.484375 26.304688 -19.222656 24.921875 -20.578125 C 23.546875 -21.941406 21.859375 -22.625 19.859375 -22.625 C 17.816406 -22.625 16.101562 -21.941406 14.71875 -20.578125 Z M 14.71875 -20.578125 "/></g></g></g><g fill="#9374fe" fill-opacity="1"><g transform="translate(294.78298, 203.999987)"><g><path d="M 10.4375 -12.84375 C 12.351562 -12.84375 13.984375 -12.171875 15.328125 -10.828125 C 16.671875 -9.484375 17.34375 -7.851562 17.34375 -5.9375 C 17.34375 -4.0625 16.671875 -2.453125 15.328125 -1.109375 C 13.984375 0.234375 12.351562 0.90625 10.4375 0.90625 C 8.5625 0.90625 6.953125 0.234375 5.609375 -1.109375 C 4.265625 -2.453125 3.59375 -4.0625 3.59375 -5.9375 C 3.59375 -7.851562 4.265625 -9.484375 5.609375 -10.828125 C 6.953125 -12.171875 8.5625 -12.84375 10.4375 -12.84375 Z M 10.4375 -12.84375 "/></g></g></g></svg>