<svg xmlns="http://www.w3.org/2000/svg" xmlns:xlink="http://www.w3.org/1999/xlink" width="500" zoomAndPan="magnify" viewBox="0 0 375 374.999991" height="500" preserveAspectRatio="xMidYMid meet" version="1.0"><defs><g/><clipPath id="2d58c652b6"><path d="M 80.84375 156.996094 L 122.09375 156.996094 L 122.09375 198.246094 L 80.84375 198.246094 Z M 80.84375 156.996094 " clip-rule="nonzero"/></clipPath></defs><g clip-path="url(#2d58c652b6)"><path fill="#9374fe" d="M 101.46875 198.246094 C 90.097656 198.246094 80.84375 188.992188 80.84375 177.621094 C 80.84375 166.25 90.097656 156.996094 101.46875 156.996094 C 112.84375 156.996094 122.09375 166.25 122.09375 177.621094 C 122.09375 188.992188 112.84375 198.246094 101.46875 198.246094 Z M 101.46875 198.246094 " fill-opacity="1" fill-rule="nonzero"/></g><path fill="#f8f8f8" d="M 95.75 183.09375 C 95.441406 183.09375 95.132812 182.996094 94.875 182.796875 L 89.679688 178.820312 C 89.328125 178.550781 89.117188 178.132812 89.113281 177.691406 C 89.109375 177.25 89.304688 176.828125 89.652344 176.550781 L 94.738281 172.46875 C 95.363281 171.96875 96.269531 172.066406 96.765625 172.6875 C 97.265625 173.308594 97.167969 174.21875 96.546875 174.714844 L 92.890625 177.648438 L 96.625 180.507812 C 97.257812 180.988281 97.378906 181.894531 96.894531 182.527344 C 96.609375 182.898438 96.183594 183.09375 95.75 183.09375 Z M 95.75 183.09375 " fill-opacity="1" fill-rule="nonzero"/><path fill="#f8f8f8" d="M 107.191406 183.09375 C 106.757812 183.09375 106.328125 182.898438 106.042969 182.527344 C 105.558594 181.894531 105.679688 180.988281 106.3125 180.507812 L 110.046875 177.648438 L 106.394531 174.714844 C 105.773438 174.21875 105.671875 173.308594 106.171875 172.6875 C 106.671875 172.066406 107.578125 171.96875 108.199219 172.46875 L 113.285156 176.550781 C 113.632812 176.828125 113.832031 177.25 113.824219 177.691406 C 113.820312 178.132812 113.613281 178.550781 113.261719 178.820312 L 108.066406 182.796875 C 107.804688 182.996094 107.496094 183.09375 107.191406 183.09375 Z M 107.191406 183.09375 " fill-opacity="1" fill-rule="nonzero"/><path fill="#f8f8f8" d="M 99.125 185.855469 C 99 185.855469 98.871094 185.835938 98.746094 185.804688 C 97.976562 185.59375 97.523438 184.804688 97.730469 184.035156 L 101.414062 170.453125 C 101.621094 169.683594 102.414062 169.230469 103.183594 169.4375 C 103.953125 169.648438 104.40625 170.441406 104.199219 171.207031 L 100.515625 184.789062 C 100.339844 185.429688 99.757812 185.855469 99.125 185.855469 Z M 99.125 185.855469 " fill-opacity="1" fill-rule="nonzero"/><g fill="#09090a" fill-opacity="1"><g transform="translate(128.016228, 201.374987)"><g><path d="M 27.234375 -42.25 L 27.234375 -33.796875 L 12.703125 -33.796875 L 12.703125 -25.390625 L 26.625 -25.390625 L 26.625 -16.953125 L 12.703125 -16.953125 L 12.703125 -8.453125 L 27.234375 -8.453125 L 27.234375 0 L 3.078125 0 L 3.078125 -42.25 Z M 27.234375 -42.25 "/></g></g></g><g fill="#09090a" fill-opacity="1"><g transform="translate(152.897657, 201.374987)"><g><path d="M 3.078125 0 L 3.078125 -26.265625 L 12.140625 -26.265625 L 12.140625 -23.5 L 12.234375 -23.5 C 14.585938 -25.851562 17.097656 -27.03125 19.765625 -27.03125 C 21.671875 -27.03125 23.460938 -26.640625 25.140625 -25.859375 C 26.816406 -25.078125 28.082031 -23.863281 28.9375 -22.21875 C 31.59375 -25.425781 34.492188 -27.03125 37.640625 -27.03125 C 40.429688 -27.03125 42.832031 -26.242188 44.84375 -24.671875 C 46.863281 -23.109375 47.875 -20.65625 47.875 -17.3125 L 47.875 0 L 38.8125 0 L 38.8125 -14.84375 C 38.8125 -16.25 38.425781 -17.421875 37.65625 -18.359375 C 36.882812 -19.296875 35.734375 -19.765625 34.203125 -19.765625 C 32.867188 -19.765625 31.851562 -19.363281 31.15625 -18.5625 C 30.457031 -17.757812 30.070312 -16.796875 30 -15.671875 L 30 0 L 20.9375 0 L 20.9375 -14.84375 C 20.9375 -16.25 20.550781 -17.421875 19.78125 -18.359375 C 19.019531 -19.296875 17.867188 -19.765625 16.328125 -19.765625 C 14.929688 -19.765625 13.882812 -19.328125 13.1875 -18.453125 C 12.488281 -17.585938 12.140625 -16.554688 12.140625 -15.359375 L 12.140625 0 Z M 3.078125 0 "/></g></g></g><g fill="#09090a" fill-opacity="1"><g transform="translate(198.514782, 201.374987)"><g><path d="M 29.640625 -11.875 L 10.59375 -11.875 C 10.59375 -10.03125 11.191406 -8.664062 12.390625 -7.78125 C 13.585938 -6.894531 14.882812 -6.453125 16.28125 -6.453125 C 17.75 -6.453125 18.910156 -6.644531 19.765625 -7.03125 C 20.617188 -7.425781 21.59375 -8.207031 22.6875 -9.375 L 29.234375 -6.09375 C 26.503906 -1.519531 21.960938 0.765625 15.609375 0.765625 C 11.648438 0.765625 8.253906 -0.585938 5.421875 -3.296875 C 2.585938 -6.015625 1.171875 -9.285156 1.171875 -13.109375 C 1.171875 -16.929688 2.585938 -20.207031 5.421875 -22.9375 C 8.253906 -25.664062 11.648438 -27.03125 15.609375 -27.03125 C 19.773438 -27.03125 23.164062 -25.828125 25.78125 -23.421875 C 28.394531 -21.015625 29.703125 -17.578125 29.703125 -13.109375 C 29.703125 -12.492188 29.679688 -12.082031 29.640625 -11.875 Z M 10.859375 -16.890625 L 20.84375 -16.890625 C 20.632812 -18.253906 20.09375 -19.300781 19.21875 -20.03125 C 18.351562 -20.769531 17.238281 -21.140625 15.875 -21.140625 C 14.375 -21.140625 13.175781 -20.75 12.28125 -19.96875 C 11.394531 -19.1875 10.921875 -18.160156 10.859375 -16.890625 Z M 10.859375 -16.890625 "/></g></g></g><g fill="#09090a" fill-opacity="1"><g transform="translate(224.573801, 201.374987)"><g><path d="M 33.078125 -26.265625 L 20.578125 -13.71875 L 34.3125 0 L 22.625 0 L 12.140625 -10.5 L 12.140625 0 L 3.078125 0 L 3.078125 -44.03125 L 12.140625 -44.03125 L 12.140625 -17.109375 L 21.296875 -26.265625 Z M 33.078125 -26.265625 "/></g></g></g><g fill="#09090a" fill-opacity="1"><g transform="translate(252.834389, 201.374987)"><g><path d="M 4.859375 -3.25 C 2.398438 -5.925781 1.171875 -9.207031 1.171875 -13.09375 C 1.171875 -16.988281 2.398438 -20.285156 4.859375 -22.984375 C 7.316406 -25.679688 10.441406 -27.03125 14.234375 -27.03125 C 17.710938 -27.03125 20.582031 -25.941406 22.84375 -23.765625 L 22.84375 -26.265625 L 31.90625 -26.265625 L 31.90625 0 L 22.9375 0 L 22.9375 -2.96875 L 22.84375 -2.96875 C 20.582031 -0.476562 17.710938 0.765625 14.234375 0.765625 C 10.441406 0.765625 7.316406 -0.570312 4.859375 -3.25 Z M 12.5625 -17.5625 C 11.382812 -16.40625 10.796875 -14.921875 10.796875 -13.109375 C 10.796875 -11.296875 11.359375 -9.816406 12.484375 -8.671875 C 13.617188 -7.535156 15.109375 -6.96875 16.953125 -6.96875 C 18.722656 -6.96875 20.179688 -7.546875 21.328125 -8.703125 C 22.472656 -9.867188 23.046875 -11.335938 23.046875 -13.109375 C 23.046875 -14.921875 22.457031 -16.40625 21.28125 -17.5625 C 20.101562 -18.71875 18.660156 -19.296875 16.953125 -19.296875 C 15.210938 -19.296875 13.75 -18.71875 12.5625 -17.5625 Z M 12.5625 -17.5625 "/></g></g></g><g fill="#9374fe" fill-opacity="1"><g transform="translate(282.996691, 201.374987)"><g><path d="M 8.90625 -10.953125 C 10.539062 -10.953125 11.929688 -10.378906 13.078125 -9.234375 C 14.222656 -8.097656 14.796875 -6.707031 14.796875 -5.0625 C 14.796875 -3.457031 14.222656 -2.082031 13.078125 -0.9375 C 11.929688 0.195312 10.539062 0.765625 8.90625 0.765625 C 7.300781 0.765625 5.925781 0.195312 4.78125 -0.9375 C 3.644531 -2.082031 3.078125 -3.457031 3.078125 -5.0625 C 3.078125 -6.707031 3.644531 -8.097656 4.78125 -9.234375 C 5.925781 -10.378906 7.300781 -10.953125 8.90625 -10.953125 Z M 8.90625 -10.953125 "/></g></g></g></svg>